<?xml version="1.0" encoding="iso-8859-1"?>
<!-- Generator: Adobe Illustrator 19.0.0, SVG Export Plug-In . SVG Version: 6.00 Build 0)  -->
<svg version="1.1" id="Layer_1" xmlns="http://www.w3.org/2000/svg" xmlns:xlink="http://www.w3.org/1999/xlink" x="0px" y="0px"
	 viewBox="0 0 512 512" style="enable-background:new 0 0 512 512;" xml:space="preserve">
<g>
	<g>
		<path fill="#bbbbcc" d="M431.908,70.315l-9.978-9.455l-0.206,0.347C375.361,21.659,317.04,0,256.002,0c-33.211,0-65.606,6.383-96.411,18.975
			l-0.092-0.096l-6.709,3.07C77.399,55.32,22.291,123.207,5.862,203.544v1.364H5.433c-0.015,0-0.027-0.53-0.043-0.455l-1.727,7.945
			l0.158-0.096c-2.519,14.554-3.81,29.189-3.81,43.792c0,75.444,32.77,145.914,90.198,194.771l-0.063,0.12l6.594,5.241
			C142.571,492.721,197.645,512,256.002,512c30.811,0,61.217-5.693,90.711-16.902l6.896-2.688v-0.163
			c84.883-34.19,143.853-110.479,155.637-202.726l0.601,0.179l1.143-14.172c0.556-7.123,1-13.092,1-19.52
			C511.99,185.211,483.564,119.26,431.908,70.315z M256.002,21.905c57.011,0,111.432,20.689,154.261,58.376
			c-30.582,48.616-73.471,87.25-124.933,112.497C256.82,135.542,220.161,82.937,176.13,36.061
			C201.807,26.673,228.6,21.905,256.002,21.905z M154.572,45.148c44.864,46.57,82.081,99.184,110.783,156.6
			c-36.75,14.942-75.54,22.504-115.479,22.504c-42.008,0-82.685-8.343-121.034-24.804C45.553,132.192,91.81,75.396,154.572,45.148z
			 M21.915,256.008c0-11.522,0.881-23.127,2.598-34.65c39.828,16.448,81.927,24.799,125.363,24.799
			c43.211,0,85.164-8.284,124.886-24.611c6.052,13.268,11.749,27.039,17.029,41.185c-84.042,27.756-152.979,87.846-192.084,167.314
			C50.103,385.566,21.915,322.901,21.915,256.008z M256.002,490.089c-50.517,0-98.344-15.82-138.864-45.822
			c36.162-76.604,101.739-134.555,182.008-160.921c20.995,62.529,32.028,127.656,32.84,193.854
			C307.203,485.758,281.679,490.089,256.002,490.089z M353.715,468.575c-1.625-65.294-12.878-129.52-33.529-191.314
			c55.356-13.923,113.844-12.102,168.06,5.067C479.104,365.698,428.602,435.329,353.715,468.575z M490.046,259.912
			c-30.724-9.231-62.523-13.905-94.718-13.905c-27.767,0-55.421,3.527-82.367,10.479l-0.055-0.158l-0.064,0.019
			c-5.557-14.971-11.573-29.582-17.973-43.626l0.093-0.043l-0.078-0.16c53.821-26.39,98.916-66.417,131.52-116.725
			c41.18,43.618,63.7,99.997,63.7,160.215C490.105,257.313,490.083,258.618,490.046,259.912z"/>
	</g>
</g>
<g>
</g>
<g>
</g>
<g>
</g>
<g>
</g>
<g>
</g>
<g>
</g>
<g>
</g>
<g>
</g>
<g>
</g>
<g>
</g>
<g>
</g>
<g>
</g>
<g>
</g>
<g>
</g>
<g>
</g>
</svg>
